<svg width="173" height="138" viewBox="0 0 173 138" fill="none" xmlns="http://www.w3.org/2000/svg">
<path opacity="0.18" d="M131.59 7.48701C127.713 6.07829 124.178 3.85437 120.32 2.41183C115.084 0.458396 109.426 -0.00742428 103.821 8.89424e-05C85.7482 8.89424e-05 67.3108 5.0377 53.1859 16.3113C47.5585 20.7929 42.5021 26.3114 35.7665 28.8095C30.4359 30.793 24.1698 30.8419 19.8573 34.5496C15.0338 38.6819 14.4365 45.8908 14.8685 52.2395C15.3005 58.5882 16.3336 65.2937 13.6213 71.0489C12.0285 74.4298 9.29742 77.1008 7.05848 80.091C4.02415 84.15 1.89513 88.8123 0.814899 93.7636C-0.265329 98.7149 -0.271668 103.84 0.796309 108.794C1.86429 113.748 3.98176 118.416 7.00605 122.482C10.0303 126.549 13.8911 129.92 18.3283 132.368C27.1977 137.252 37.7124 138.138 47.844 137.969C57.0928 137.815 66.766 136.729 74.4408 131.564C79.3845 128.232 83.2688 123.348 88.637 120.756C95.1097 117.638 102.66 118.322 109.847 118.277C118.359 118.217 127.082 116.955 134.509 112.792C141.936 108.63 147.883 101.181 148.559 92.6982C149.073 86.188 146.575 79.3998 148.758 73.2502C149.588 70.9099 151.049 68.8475 152.616 66.9241C158.379 59.8204 166.008 53.9375 169.648 45.5227C171.621 40.9697 172.278 35.9546 172.511 30.9996C172.796 24.7599 171.955 17.5698 166.835 13.986C162.191 10.7365 156.474 12.2391 151.241 11.4878C144.81 10.5524 137.717 9.70342 131.59 7.48701Z" />
<path d="M63.2386 71.9692C63.2386 71.9692 46.6194 67.8933 35.4848 77.1421C24.3502 86.3909 37.055 82.4765 41.1197 83.7312C45.1843 84.9859 51.3114 87.3375 51.3114 87.3375C51.3114 87.3375 68.2574 79.3322 63.2386 71.9692Z" fill="#3E3E54"/>
<path d="M63.2386 71.9692C63.2386 71.9692 46.6194 67.8933 35.4848 77.1421C24.3502 86.3909 37.055 82.4765 41.1197 83.7312C45.1843 84.9859 51.3114 87.3375 51.3114 87.3375C51.3114 87.3375 68.2574 79.3322 63.2386 71.9692Z" fill="url(#paint0_linear_1_183)"/>
<path d="M57.4158 98.3557C57.4158 98.3557 67.8705 91.4585 74.3506 93.5472L79.7864 95.2189C79.7864 95.2189 76.4431 116.339 57.8328 118.221C57.8328 118.221 53.8621 118.638 58.2536 111.32C62.645 104.002 57.4158 98.3557 57.4158 98.3557Z" fill="#3E3E54"/>
<path d="M57.4158 98.3557C57.4158 98.3557 67.8705 91.4585 74.3506 93.5472L79.7864 95.2189C79.7864 95.2189 76.4431 116.339 57.8328 118.221C57.8328 118.221 53.8621 118.638 58.2536 111.32C62.645 104.002 57.4158 98.3557 57.4158 98.3557Z" fill="url(#paint1_linear_1_183)"/>
<path d="M86.5333 29.5421C87.2813 29.9401 88.0858 30.2213 88.9188 30.376C90.1472 30.5376 91.3681 30.1469 92.559 29.8126C93.9457 29.4249 95.3513 29.1077 96.7701 28.8621C97.5515 28.7307 98.4643 28.6593 99.0241 29.2378C99.5838 29.8163 99.4711 30.8156 98.9828 31.458C98.4944 32.1003 97.7393 32.4685 97.0105 32.8178L92.7355 34.8577C92.004 35.2349 91.2395 35.5442 90.4515 35.7818C87.1945 36.6609 83.8136 35.0305 80.9773 33.216C79.8841 32.5098 78.7008 31.5782 78.6557 30.2784C78.6698 29.7626 78.7767 29.2536 78.9713 28.7757C79.1235 28.1829 79.4323 27.6418 79.8654 27.2092C81.1576 26.0935 85.2298 28.9298 86.5333 29.5421Z" />
<path d="M86.4432 29.5871C87.1912 29.9851 87.9956 30.2664 88.8286 30.4211C90.057 30.5826 91.2779 30.192 92.4688 29.8576C93.8601 29.4689 95.2708 29.1529 96.695 28.911C97.4726 28.7757 98.3892 28.7043 98.9489 29.2866C99.5087 29.8689 99.396 30.8606 98.9076 31.503C98.4193 32.1454 97.6642 32.5135 96.9354 32.8629L92.6604 34.9027C91.9289 35.28 91.1644 35.5893 90.3764 35.8269C87.1194 36.7059 83.7384 35.0756 80.9022 33.2611C79.809 32.5586 78.6257 31.6232 78.5806 30.3234C78.5919 29.8074 78.6989 29.2979 78.8962 28.8208C79.0422 28.2353 79.3402 27.6988 79.7602 27.2656C81.0675 26.1386 85.1246 28.9786 86.4432 29.5871Z" fill="url(#paint2_linear_1_183)"/>
<path d="M95.0308 45.4062C93.8174 47.2845 92.2584 48.9412 90.7107 50.5678C89.163 52.1944 87.6152 53.7947 85.5566 54.5573C84.5423 54.933 83.3402 55.0607 82.4161 54.4897C81.4131 53.8736 80.9999 52.5551 81.1877 51.3905C81.4391 50.2299 82.0164 49.1652 82.8519 48.3214C83.4926 47.5305 84.2043 46.8 84.9781 46.1388C85.8271 45.4926 86.7287 45.5264 87.8369 45.4475C90.2313 45.2742 92.6346 45.2604 95.0308 45.4062Z" fill="#3E3E54"/>
<path d="M95.0308 45.4062C93.8174 47.2845 92.2584 48.9412 90.7107 50.5678C89.163 52.1944 87.6152 53.7947 85.5566 54.5573C84.5423 54.933 83.3402 55.0607 82.4161 54.4897C81.4131 53.8736 80.9999 52.5551 81.1877 51.3905C81.4391 50.2299 82.0164 49.1652 82.8519 48.3214C83.4926 47.5305 84.2043 46.8 84.9781 46.1388C85.8271 45.4926 86.7287 45.5264 87.8369 45.4475C90.2313 45.2742 92.6346 45.2604 95.0308 45.4062Z" fill="url(#paint3_linear_1_183)"/>
<path d="M158.934 28.5804C158.785 29.4882 158.587 30.3873 158.341 31.2739C157.04 35.9204 155.196 40.3977 152.849 44.6136C147.62 54.2042 138.04 66.7776 120.67 78.4231C93.3967 96.7779 69.4595 99.8358 60.6277 100.298C58.2911 100.429 57.0101 100.38 57.0101 100.38L49.0123 87.9837C49.0123 87.9837 58.0282 74.5613 74.3018 60.4853C81.807 53.9534 89.9511 48.1942 98.6108 43.295C103.793 40.3751 109.159 37.7927 114.674 35.5639C122.243 32.4601 130.14 30.2257 138.213 28.9034C151.29 26.8674 158.934 28.5804 158.934 28.5804Z" />
<path d="M94.8355 48.7233C94.4598 49.4183 95.6281 51.6347 96.2667 52.1043C96.9054 52.5738 97.6867 52.8556 98.145 53.5092C98.2371 53.6231 98.3027 53.7559 98.3372 53.8982C98.3716 54.0405 98.374 54.1886 98.3441 54.3319C98.2239 54.7527 97.7431 54.9405 97.3261 55.0833L86.1164 58.5318C85.8059 58.5975 85.5182 58.7439 85.2824 58.9563C84.8316 59.4372 85.057 60.2787 85.5717 60.6806C86.1293 61.0387 86.7896 61.2025 87.45 61.1464C91.0751 61.1464 95.0571 59.6438 98.0924 61.6123C98.9556 62.2291 99.7043 62.9918 100.305 63.8662C102.446 66.7062 104.085 69.8914 105.151 73.284C105.478 74.3284 105.748 75.4666 105.373 76.4959C103.599 75.7709 102.074 74.5452 100.985 72.9685C99.6251 70.985 98.9264 68.438 96.9467 67.0781C95.5004 66.0826 93.6296 65.9511 91.879 66.0976C90.1284 66.2442 88.4041 66.6837 86.6498 66.7062C82.7429 66.7551 79.1366 64.8279 75.6955 62.9496C74.978 62.5739 74.1628 62.0142 74.1478 61.1953C74.1461 60.9702 74.2003 60.7481 74.3056 60.5491C81.8107 54.0172 89.9549 48.2581 98.6146 43.3589C103.797 40.4389 109.163 37.8565 114.678 35.6278C116.166 37.7427 94.997 48.4341 94.8355 48.7233Z" fill="url(#paint4_linear_1_183)"/>
<path d="M158.796 28.7156C158.796 28.7156 157.868 35.2897 152.71 44.7488C151.051 44.2292 149.421 43.6223 147.826 42.9306C141.282 40.1282 138.585 30.9658 138.089 29.065C151.151 27.0064 158.796 28.7156 158.796 28.7156Z" fill="url(#paint5_linear_1_183)"/>
<path opacity="0.31" d="M127.668 52.9082C131.112 52.9082 133.904 50.1163 133.904 46.6722C133.904 43.2282 131.112 40.4362 127.668 40.4362C124.224 40.4362 121.432 43.2282 121.432 46.6722C121.432 50.1163 124.224 52.9082 127.668 52.9082Z" fill="#3E3E54"/>
<path opacity="0.31" d="M111.203 62.4725C114.647 62.4725 117.439 59.6806 117.439 56.2366C117.439 52.7925 114.647 50.0006 111.203 50.0006C107.759 50.0006 104.967 52.7925 104.967 56.2366C104.967 59.6806 107.759 62.4725 111.203 62.4725Z" fill="#3E3E54"/>
<path opacity="0.31" d="M93.1713 74.704C96.6153 74.704 99.4072 71.9121 99.4072 68.4681C99.4072 65.024 96.6153 62.2321 93.1713 62.2321C89.7272 62.2321 86.9353 65.024 86.9353 68.4681C86.9353 71.9121 89.7272 74.704 93.1713 74.704Z" fill="#3E3E54"/>
<path d="M50.3722 83.874L60.8269 100.598L55.1807 102.691L46.6081 88.2654L50.3722 83.874Z" fill="#3E3E54"/>
<path d="M80.9923 63.9263C85.9323 65.1209 91.0864 63.8324 96.0714 62.8369C96.5836 62.6904 97.1255 62.6826 97.6416 62.8144C98.2314 63.021 98.6259 63.5657 98.9715 64.0879C100.694 66.7042 102.129 69.499 103.25 72.4238C103.926 74.1856 104.561 76.1015 106.064 77.2435C107.567 78.3855 110.249 78.1301 110.794 76.3231C108.228 69.1067 105.068 62.1194 101.913 55.1396C101.627 54.5085 101.312 53.8398 100.726 53.4679C100.213 53.1971 99.6418 53.054 99.0616 53.0509L81.2703 51.5145C77.2733 51.1689 71.2627 50.6392 72.6038 56.199C73.528 60.0758 77.2357 63.0172 80.9923 63.9263Z" fill="#3E3E54"/>
<path d="M80.9923 63.9263C85.9323 65.1209 91.0864 63.8324 96.0714 62.8369C96.5836 62.6904 97.1255 62.6826 97.6416 62.8144C98.2314 63.021 98.6259 63.5657 98.9715 64.0879C100.694 66.7042 102.129 69.499 103.25 72.4238C103.926 74.1856 104.561 76.1015 106.064 77.2435C107.567 78.3855 110.249 78.1301 110.794 76.3231C108.228 69.1067 105.068 62.1194 101.913 55.1396C101.627 54.5085 101.312 53.8398 100.726 53.4679C100.213 53.1971 99.6418 53.054 99.0616 53.0509L81.2703 51.5145C77.2733 51.1689 71.2627 50.6392 72.6038 56.199C73.528 60.0758 77.2357 63.0172 80.9923 63.9263Z" fill="url(#paint6_linear_1_183)"/>
<path d="M85.4552 48.5468C85.4552 49.7601 85.4552 51.0148 84.9105 52.1043C84.2155 53.5318 82.7166 54.4296 81.1539 54.794C80.6592 54.9052 80.1569 54.9793 79.6512 55.0156C78.5727 55.0632 77.4922 55.0393 76.4168 54.9443C74.3544 54.809 72.014 54.5273 70.7819 52.8669C69.9178 51.6986 69.8427 50.1433 69.8089 48.6895C69.7187 44.715 69.7 40.7405 69.6699 36.766C69.6699 34.4933 68.7495 31.4279 69.0726 29.2528C69.1817 28.3548 69.5316 27.503 70.085 26.7875C70.6385 26.072 71.3751 25.5194 72.2169 25.1882C75.2635 23.8846 79.6888 24.8425 81.8488 27.3257C83.5806 29.3092 84.2493 31.9951 84.655 34.5985C85.3951 39.1928 85.4514 43.881 85.4552 48.5468Z" />
<path d="M78.6783 40.9734C78.8736 43.9787 78.9788 46.984 78.9938 49.9893C78.9699 50.8176 79.0101 51.6466 79.114 52.4687C79.2155 53.096 79.6174 53.6745 79.6888 54.2681C79.7197 54.5182 79.7121 54.7716 79.6663 55.0194C78.5877 55.067 77.5072 55.0431 76.4318 54.948C74.3694 54.8128 72.0291 54.5311 70.7969 52.8706C69.9329 51.7023 69.8578 50.1471 69.8239 48.6933C69.7338 44.7188 69.715 40.7443 69.6849 36.7698C69.6849 34.497 68.7646 31.4317 69.0876 29.2566C69.1968 28.3586 69.5466 27.5068 70.1001 26.7913C70.6536 26.0758 71.3902 25.5232 72.2319 25.1919C72.4733 25.271 72.7072 25.3716 72.9307 25.4925C74.2492 26.1912 75.2447 27.3708 76.1538 28.5578C76.6282 29.1485 77.0317 29.7928 77.3559 30.4775C77.6998 31.3752 77.9123 32.3178 77.9871 33.2762C78.22 35.2484 78.4078 37.2281 78.5618 39.2116C78.6445 40.271 78.3627 40.9396 79.5047 41.1425C80.4759 41.3121 81.4573 41.4163 82.4424 41.4543C83.4454 41.4994 84.6325 41.3829 85.1622 40.5302C85.3386 40.2008 85.4164 39.8277 85.3864 39.4553C85.3564 39.083 85.2199 38.7271 84.9931 38.4302C84.5268 37.8438 83.8945 37.4118 83.1787 37.1905C82.48 36.9351 81.7437 36.7923 81.0374 36.5557C80.32 36.3364 79.6578 35.9663 79.0953 35.47C78.5287 34.969 78.1719 34.2728 78.096 33.5203" fill="url(#paint7_linear_1_183)"/>
<path d="M74.1778 24.557C74.1381 24.9179 74.1533 25.2827 74.2229 25.6389C74.4446 26.5218 75.286 27.1003 76.12 27.4647C76.6347 27.6901 77.3221 27.8403 77.694 27.4083C77.9833 27.074 77.9119 26.5706 77.8217 26.1348L77.3259 23.7644C77.2349 23.2339 77.0902 22.7141 76.8939 22.2129C76.676 21.7058 75.2372 19.6396 74.5084 20.1656C74.2041 20.3835 74.3319 21.8711 74.3131 22.243L74.1778 24.557Z" fill="url(#paint8_linear_1_183)"/>
<path d="M74.253 20.2332C74.4583 21.2129 74.9051 22.1258 75.5528 22.8891C76.2098 23.6544 77.1371 24.1363 78.1411 24.234C78.5071 24.2766 78.8773 24.2044 79.2004 24.0274C79.5972 23.7165 79.8874 23.2898 80.0306 22.8065C80.8834 20.7366 81.7474 18.4601 81.1013 16.3113C80.939 15.6424 80.5209 15.0638 79.9367 14.6997C79.3113 14.4325 78.6118 14.3939 77.9607 14.5907C76.8338 14.8462 75.1433 15.4322 74.4145 16.3939C73.6857 17.3556 74.005 19.1776 74.253 20.2332Z" fill="url(#paint9_linear_1_183)"/>
<path d="M78.389 10.9055C77.5633 10.5347 76.6543 10.3885 75.754 10.4815C74.8536 10.5745 73.9937 10.9035 73.2612 11.4352C72.3146 12.1452 71.6384 13.167 70.6729 13.8469C69.7638 14.4893 68.6631 14.7823 67.6451 15.2331C67.5211 15.2857 67.3821 15.3646 67.3596 15.4961C67.322 15.699 67.5587 15.8304 67.6526 16.0145C67.7954 16.2963 67.5662 16.6193 67.3521 16.856L66.1274 18.1933C65.9772 18.3239 65.8754 18.5012 65.8382 18.6967C65.7968 19.2114 66.5256 19.3579 67.0403 19.3128L68.7383 19.1625C67.74 19.8341 66.8761 20.6865 66.1913 21.6757C66.567 22.0739 67.2619 21.8861 67.724 21.5818C68.186 21.2775 68.6256 20.8305 69.174 20.8605C68.3513 22.1866 70.9284 22.134 71.6985 22.1152C72.3528 22.0747 72.992 21.9008 73.5768 21.6043C73.8574 21.4952 74.113 21.3304 74.3281 21.1197C74.4362 21.0148 74.5167 20.8848 74.5626 20.7413C74.6084 20.5978 74.6182 20.4452 74.5911 20.297C74.5482 20.1674 74.4942 20.0417 74.4295 19.9214C74.322 19.6848 74.2683 19.4274 74.2722 19.1675C74.2761 18.9077 74.3375 18.652 74.4521 18.4187C74.4896 18.3474 74.5385 18.2685 74.6211 18.2572C74.6883 18.2549 74.7539 18.2777 74.8052 18.3211L75.3724 18.6967C75.3418 17.9344 75.6136 17.1908 76.1286 16.628C76.6437 16.0651 77.3602 15.7285 78.1223 15.6914C79.2943 15.6276 81.4394 16.2061 81.1576 14.294C80.9322 12.859 79.67 11.4878 78.389 10.9055Z" fill="#3E3E54"/>
<path d="M80.2673 15.6727C80.4893 15.5709 80.6769 15.407 80.8076 15.2008C80.9383 14.9946 81.0063 14.7549 81.0035 14.5108C81.0008 14.2667 80.9272 14.0287 80.7919 13.8255C80.6566 13.6223 80.4652 13.4627 80.241 13.3661C79.6996 13.077 79.0876 12.9468 78.4754 12.9904C77.447 12.9675 76.4268 13.1795 75.4927 13.6103C74.2154 14.2489 73.2913 15.4247 72.1117 16.2399C71.1114 16.8692 70.0132 17.3276 68.8623 17.596C68.3328 17.6852 67.8312 17.8961 67.3972 18.2121C67.3296 18.276 67.2619 18.3624 67.292 18.4488C67.3137 18.4882 67.3446 18.5217 67.3822 18.5465C67.5266 18.6452 67.6907 18.7115 67.8632 18.7407C68.0357 18.7699 68.2125 18.7613 68.3814 18.7155C68.5768 18.6629 68.7571 18.5577 68.9374 18.4901C69.5012 18.3512 70.0903 18.3512 70.6542 18.4901C71.4445 18.642 72.2585 18.6202 73.0396 18.4263C73.6954 18.1765 74.3246 17.8619 74.9179 17.4871C75.1515 17.3733 75.4096 17.3191 75.6692 17.3293C75.4707 17.7508 75.3718 18.2122 75.38 18.6779L74.8127 18.3023C74.7836 18.28 74.7503 18.2638 74.7148 18.2548C74.6793 18.2457 74.6423 18.244 74.6061 18.2497C74.5272 18.2497 74.4746 18.3399 74.4371 18.4112C74.3235 18.6448 74.2626 18.9004 74.2587 19.16C74.2548 19.4197 74.308 19.677 74.4145 19.9139C74.4795 20.0335 74.5324 20.1594 74.5723 20.2895C74.6025 20.4371 74.5949 20.5899 74.5502 20.7337C74.5055 20.8775 74.4253 21.0077 74.3169 21.1122C74.0987 21.32 73.844 21.4856 73.5655 21.6006C72.9798 21.8939 72.341 22.0664 71.6872 22.1077C70.9359 22.1077 68.3476 22.1791 69.1665 20.853C68.6181 20.853 68.1523 21.2925 67.7165 21.5743C67.2807 21.856 66.5895 22.0627 66.1838 21.6682C66.8676 20.6781 67.7316 19.8256 68.7308 19.155L67.0328 19.3053C66.5144 19.3504 65.7893 19.2039 65.8307 18.6892C65.8679 18.4946 65.9683 18.3177 66.1162 18.1858L67.3446 16.8485C67.5587 16.6118 67.7879 16.2887 67.6451 16.007C67.5512 15.8229 67.3145 15.6877 67.3521 15.4886C67.3746 15.3533 67.5136 15.2782 67.6376 15.2219C68.6519 14.7748 69.7563 14.4705 70.6654 13.8432C71.6346 13.1632 72.3108 12.1339 73.2537 11.4314C73.9852 10.8977 74.845 10.5671 75.7457 10.4734C76.6464 10.3798 77.5558 10.5262 78.3815 10.898C79.6588 11.4953 80.9247 12.8514 81.1351 14.279C81.2741 15.2068 80.8646 15.5524 80.2673 15.6727Z" fill="url(#paint10_linear_1_183)"/>
<path d="M101.5 27.1153C102.563 26.8711 103.802 27.1153 104.475 27.9793C104.56 28.0759 104.613 28.1968 104.625 28.3249C104.629 28.3542 104.627 28.3838 104.618 28.4121C104.61 28.4404 104.596 28.4668 104.578 28.4896C104.559 28.5124 104.536 28.5312 104.51 28.5449C104.484 28.5586 104.455 28.5668 104.426 28.5691H103.641C103.107 28.8969 102.613 29.2852 102.168 29.7262C101.521 30.2543 100.753 30.6143 99.9332 30.7742C98.8438 30.9884 97.4914 30.2483 98.3366 29.065C98.9978 28.1371 100.41 27.367 101.5 27.1153Z" fill="url(#paint11_linear_1_183)"/>
<path d="M99.6139 36.7961C99.7882 36.88 99.9405 37.0035 100.059 37.1568C100.177 37.3101 100.257 37.4889 100.294 37.6789C100.3 37.7422 100.288 37.8059 100.26 37.863C100.159 38.0358 99.9069 37.9945 99.7078 37.9607C98.4117 37.7277 97.1796 38.7383 95.861 38.712C95.2577 38.6964 94.6839 38.4473 94.2607 38.017C93.885 37.615 93.5094 36.8562 93.7197 36.2927C93.9414 35.6466 94.6927 35.6353 95.2787 35.6165C96.8101 35.5598 98.3224 35.9713 99.6139 36.7961Z" fill="url(#paint12_linear_1_183)"/>
<path d="M108.19 22.7126L113.299 18.847C113.299 18.847 114.554 18.4263 114.975 18.9522C115.395 19.4781 114.922 35.5038 114.922 35.5038L108.596 38.4828L108.19 22.7126Z" />
<path d="M108.265 22.7576L113.386 18.8921C113.386 18.8921 114.64 18.4714 115.061 18.9973C115.482 19.5232 114.933 35.5264 114.933 35.5264L108.682 38.5317L108.265 22.7576Z" fill="url(#paint13_linear_1_183)"/>
<path d="M109.779 22.6825L115.061 19.001C115.061 19.001 114.118 18.3211 113.386 18.8958C112.653 19.4706 108.265 22.7576 108.265 22.7576L109.779 22.6825Z" fill="url(#paint14_linear_1_183)"/>
<path d="M107.995 79.6553C108.036 79.7569 108.096 79.8499 108.171 79.9295C108.266 80.0082 108.378 80.0636 108.498 80.091C108.806 80.1767 109.129 80.1942 109.444 80.1423C109.76 80.0904 110.06 79.9703 110.324 79.7905C110.543 79.6508 110.715 79.4478 110.816 79.2082C110.911 78.8344 110.886 78.4401 110.745 78.0812L110.433 76.9993C110.431 76.9841 110.424 76.9698 110.414 76.958C110.388 76.958 110.354 76.958 110.328 76.958C109.422 77.499 108.356 76.958 107.491 77.3337C106.763 77.6868 107.728 79.1068 107.995 79.6553Z" fill="url(#paint15_linear_1_183)"/>
<path d="M109.047 79.5801C108.742 79.5988 108.44 79.6402 108.141 79.7041C107.993 79.7403 107.857 79.8138 107.745 79.9177C107.633 80.0216 107.55 80.1524 107.503 80.2976C107.477 80.5836 107.553 80.8695 107.717 81.1053C107.935 81.5073 108.153 81.9092 108.386 82.3037C108.511 82.5679 108.711 82.7899 108.96 82.9423C109.213 83.0432 109.491 83.0642 109.757 83.0024C110.555 82.8493 111.331 82.5969 112.067 82.2511C113.57 81.6175 115.061 80.94 116.541 80.2188C116.785 80.0985 117.056 79.9445 117.105 79.6778C117.117 79.5847 117.107 79.4899 117.075 79.4016C117.043 79.3133 116.99 79.2341 116.921 79.1707C116.78 79.0462 116.616 78.9494 116.44 78.8852C115.385 78.4811 114.276 78.2367 113.149 78.1601C112.751 78.1188 112.082 77.931 111.71 78.1113C111.338 78.2916 110.981 78.7349 110.583 78.9753C110.12 79.2834 109.596 79.4895 109.047 79.5801Z" fill="#3E3E54"/>
<path d="M93.8362 38.464C93.1819 38.8595 92.4529 39.1153 91.6949 39.2154L87.619 40.0381C86.7242 40.2633 85.8027 40.3645 84.8804 40.3386C84.0431 40.2471 83.2218 40.0437 82.4386 39.7338C79.2756 38.6068 74.2605 37.2807 71.8337 34.8239C69.9967 32.9456 70.4475 29.2265 72.8217 28.2949C73.2735 28.1199 73.7586 28.048 74.2417 28.0845C76.2553 28.2123 77.6227 30.0643 79.1704 31.3678C82.4912 34.2003 87.1269 34.6924 91.4921 35.0155H91.5822H91.8752C93.0022 35.0981 94.3922 35.3911 94.7002 36.4693C94.8918 37.2319 94.4635 38.0245 93.8362 38.464Z" />
<path d="M97.5477 44.6361L108.682 38.5354L109.779 22.6975C109.779 22.6975 108.089 21.9988 107.95 23.6029C107.811 25.2069 106.627 37.2619 106.627 37.2619L97.0105 42.3483C97.0105 42.3483 95.5793 43.7946 97.5477 44.6361Z" />
<path d="M54.9177 101.981C52.0322 106.424 47.7071 109.739 42.6674 111.372L44.5833 107.263C42.179 110.238 39.756 113.228 36.9085 115.786C34.061 118.345 30.7364 120.467 27.0324 121.421C26.6567 120.877 27.0587 120.148 27.4569 119.618C30.093 116.109 33.0197 112.828 36.206 109.81C28.8694 114.081 21.5027 118.367 13.61 121.493C18.6845 114.452 24.759 108.188 31.6417 102.901L26.8032 104.148C32.494 97.5365 39.3525 92.0278 47.0363 87.8973C50.1881 92.2136 52.7013 97.1385 54.9177 101.981Z" />
<path d="M54.9177 101.981C52.0322 106.424 47.7071 109.739 42.6674 111.372L44.5833 107.263C42.179 110.238 39.756 113.228 36.9085 115.786C34.061 118.345 30.7364 120.467 27.0324 121.421C26.6567 120.877 27.0587 120.148 27.4569 119.618C30.093 116.109 33.0197 112.828 36.206 109.81C28.8694 114.081 21.5027 118.367 13.61 121.493C18.6845 114.452 24.759 108.188 31.6417 102.901L26.8032 104.148C32.494 97.5365 39.3525 92.0278 47.0363 87.8973C50.1881 92.2136 52.7013 97.1385 54.9177 101.981Z" fill="url(#paint16_linear_1_183)"/>
<path d="M39.6696 97.9387C39.4931 98.1829 39.3165 98.5097 39.4705 98.7689C39.5889 98.9167 39.7548 99.0189 39.9401 99.0581L41.3864 99.5352C39.5235 101.174 37.8065 102.971 36.2549 104.907C35.9956 105.23 35.744 105.722 36.0407 106.012C36.1815 106.127 36.3583 106.19 36.5404 106.188C38.5501 106.369 40.4247 105.257 42.1377 104.19C41.8265 105.321 41.287 106.377 40.5524 107.293C42.4908 106.917 44.2452 105.914 45.8117 104.746C47.3782 103.577 48.8545 102.24 50.4699 101.109L49.9364 102.499C50.925 101.849 51.7774 101.012 52.4458 100.035C52.6069 99.86 52.7086 99.6386 52.7363 99.4025C52.7639 99.1663 52.7162 98.9274 52.5999 98.7201C51.7941 96.537 50.641 94.4985 49.1851 92.6832C48.935 92.3324 48.6153 92.037 48.246 91.8154C47.0664 91.1956 44.6058 93.2129 43.6591 93.9078C42.1261 95.0339 40.7798 96.3941 39.6696 97.9387Z" />
<path d="M39.6696 97.9387C39.4931 98.1829 39.3165 98.5097 39.4705 98.7689C39.5889 98.9167 39.7548 99.0189 39.9401 99.0581L41.3864 99.5352C39.5235 101.174 37.8065 102.971 36.2549 104.907C35.9956 105.23 35.744 105.722 36.0407 106.012C36.1815 106.127 36.3583 106.19 36.5404 106.188C38.5501 106.369 40.4247 105.257 42.1377 104.19C41.8265 105.321 41.287 106.377 40.5524 107.293C42.4908 106.917 44.2452 105.914 45.8117 104.746C47.3782 103.577 48.8545 102.24 50.4699 101.109L49.9364 102.499C50.925 101.849 51.7774 101.012 52.4458 100.035C52.6069 99.86 52.7086 99.6386 52.7363 99.4025C52.7639 99.1663 52.7162 98.9274 52.5999 98.7201C51.7941 96.537 50.641 94.4985 49.1851 92.6832C48.935 92.3324 48.6153 92.037 48.246 91.8154C47.0664 91.1956 44.6058 93.2129 43.6591 93.9078C42.1261 95.0339 40.7798 96.3941 39.6696 97.9387Z" fill="url(#paint17_linear_1_183)"/>
<path d="M93.1637 36.4505C92.9381 36.5388 92.6951 36.5735 92.4537 36.5519C89.9443 36.5519 87.4161 36.5144 84.9405 36.0748C82.4649 35.6353 80.0231 34.7563 78.0697 33.1822C76.691 32.0553 75.6016 30.6616 74.2191 29.5646C73.8435 29.2528 72.8668 28.8621 72.8179 28.2949C73.2697 28.1199 73.7548 28.048 74.2379 28.0845C76.2515 28.2123 77.6189 30.0643 79.1666 31.3678C82.4874 34.2003 87.1231 34.6924 91.4883 35.0155H91.5784C92.1309 35.0615 92.6674 35.2241 93.1525 35.4926C93.3028 35.5656 93.4197 35.6933 93.4793 35.8494C93.5039 35.9706 93.486 36.0966 93.4285 36.2061C93.371 36.3156 93.2775 36.4019 93.1637 36.4505Z" fill="url(#paint18_linear_1_183)"/>
<path d="M158.799 28.7119L158.337 31.2739C157.041 35.9216 155.199 40.3994 152.849 44.6136C147.616 54.2042 138.04 66.7588 120.673 78.4231C93.3966 96.7779 69.4595 99.8358 60.6277 100.302L57.6224 96.128C126.699 75.7334 143.018 43.0959 144.919 42.8255C146.819 42.555 152.537 28.6856 152.537 28.6856L158.799 28.7119Z" fill="url(#paint19_linear_1_183)"/>
<defs>
<linearGradient id="paint0_linear_1_183" x1="31.0219" y1="79.197" x2="64.1703" y2="79.197" gradientUnits="userSpaceOnUse">
<stop stop-opacity="0"/>
<stop offset="0.99"/>
</linearGradient>
<linearGradient id="paint1_linear_1_183" x1="56.1874" y1="105.689" x2="79.7864" y2="105.689" gradientUnits="userSpaceOnUse">
<stop stop-opacity="0"/>
<stop offset="0.99"/>
</linearGradient>
<linearGradient id="paint2_linear_1_183" x1="94.8354" y1="22.4458" x2="69.6774" y2="53.9938" gradientUnits="userSpaceOnUse">
<stop stop-opacity="0"/>
<stop offset="0.99"/>
</linearGradient>
<linearGradient id="paint3_linear_1_183" x1="83.9263" y1="44.9517" x2="90.6356" y2="52.0216" gradientUnits="userSpaceOnUse">
<stop stop-opacity="0"/>
<stop offset="0.99"/>
</linearGradient>
<linearGradient id="paint4_linear_1_183" x1="78.9525" y1="34.76" x2="122.232" y2="73.6822" gradientUnits="userSpaceOnUse">
<stop stop-opacity="0"/>
<stop offset="0.99"/>
</linearGradient>
<linearGradient id="paint5_linear_1_183" x1="147.315" y1="31.1386" x2="161.275" y2="42.7428" gradientUnits="userSpaceOnUse">
<stop stop-opacity="0"/>
<stop offset="0.99"/>
</linearGradient>
<linearGradient id="paint6_linear_1_183" x1="72.4047" y1="64.6251" x2="110.786" y2="64.6251" gradientUnits="userSpaceOnUse">
<stop stop-opacity="0"/>
<stop offset="0.99"/>
</linearGradient>
<linearGradient id="paint7_linear_1_183" x1="100.827" y1="37.3934" x2="8.40334" y2="47.4348" gradientUnits="userSpaceOnUse">
<stop stop-opacity="0"/>
<stop offset="0.99"/>
</linearGradient>
<linearGradient id="paint8_linear_1_183" x1="74.1591" y1="23.8809" x2="77.9006" y2="23.8809" gradientUnits="userSpaceOnUse">
<stop stop-color="#E5C5D5"/>
<stop offset="0.42" stop-color="#EAD4D1"/>
<stop offset="1" stop-color="#F0E9CB"/>
</linearGradient>
<linearGradient id="paint9_linear_1_183" x1="73.975" y1="19.3579" x2="81.3267" y2="19.3579" gradientUnits="userSpaceOnUse">
<stop stop-color="#E5C5D5"/>
<stop offset="0.42" stop-color="#EAD4D1"/>
<stop offset="1" stop-color="#F0E9CB"/>
</linearGradient>
<linearGradient id="paint10_linear_1_183" x1="74.1065" y1="10.1805" x2="73.0621" y2="21.4616" gradientUnits="userSpaceOnUse">
<stop stop-opacity="0"/>
<stop offset="0.99"/>
</linearGradient>
<linearGradient id="paint11_linear_1_183" x1="98.0737" y1="28.9185" x2="104.625" y2="28.9185" gradientUnits="userSpaceOnUse">
<stop stop-color="#E5C5D5"/>
<stop offset="0.42" stop-color="#EAD4D1"/>
<stop offset="1" stop-color="#F0E9CB"/>
</linearGradient>
<linearGradient id="paint12_linear_1_183" x1="93.9483" y1="35.8354" x2="99.6935" y2="38.9211" gradientUnits="userSpaceOnUse">
<stop stop-color="#E5C5D5"/>
<stop offset="0.42" stop-color="#EAD4D1"/>
<stop offset="1" stop-color="#F0E9CB"/>
</linearGradient>
<linearGradient id="paint13_linear_1_183" x1="111.845" y1="17.8853" x2="111.301" y2="46.8939" gradientUnits="userSpaceOnUse">
<stop stop-opacity="0"/>
<stop offset="0.99"/>
</linearGradient>
<linearGradient id="paint14_linear_1_183" x1="110.816" y1="19.9026" x2="113.186" y2="22.6111" gradientUnits="userSpaceOnUse">
<stop stop-opacity="0"/>
<stop offset="0.99"/>
</linearGradient>
<linearGradient id="paint15_linear_1_183" x1="107.225" y1="78.5621" x2="110.88" y2="78.5621" gradientUnits="userSpaceOnUse">
<stop stop-color="#E5C5D5"/>
<stop offset="0.42" stop-color="#EAD4D1"/>
<stop offset="1" stop-color="#F0E9CB"/>
</linearGradient>
<linearGradient id="paint16_linear_1_183" x1="69.9592" y1="103.521" x2="12.3027" y2="105.516" gradientUnits="userSpaceOnUse">
<stop offset="0.02" stop-color="white" stop-opacity="0"/>
<stop offset="0.58" stop-color="white" stop-opacity="0.39"/>
<stop offset="0.68" stop-color="white" stop-opacity="0.68"/>
<stop offset="1" stop-color="white"/>
</linearGradient>
<linearGradient id="paint17_linear_1_183" x1="77.1681" y1="87.3488" x2="26.4013" y2="106.023" gradientUnits="userSpaceOnUse">
<stop offset="0.02" stop-color="white" stop-opacity="0"/>
<stop offset="0.58" stop-color="white" stop-opacity="0.39"/>
<stop offset="0.68" stop-color="white" stop-opacity="0.68"/>
<stop offset="1" stop-color="white"/>
</linearGradient>
<linearGradient id="paint18_linear_1_183" x1="85.6843" y1="26.1499" x2="74.8052" y2="52.1193" gradientUnits="userSpaceOnUse">
<stop offset="0.02" stop-color="white" stop-opacity="0"/>
<stop offset="0.58" stop-color="white" stop-opacity="0.39"/>
<stop offset="0.68" stop-color="white" stop-opacity="0.68"/>
<stop offset="1" stop-color="white"/>
</linearGradient>
<linearGradient id="paint19_linear_1_183" x1="107.228" y1="55.2561" x2="114.843" y2="110.734" gradientUnits="userSpaceOnUse">
<stop stop-opacity="0"/>
<stop offset="0.99"/>
</linearGradient>
</defs>
</svg>
